<svg width="30" height="30" viewBox="0 0 30 30" fill="none" xmlns="http://www.w3.org/2000/svg">
<rect width="29.1529" height="29.1529" transform="translate(0.15918 0.611328)" fill="white"/>
<path d="M19.084 15.1875C19.084 17.5926 17.1405 19.5362 14.7354 19.5362C12.3302 19.5362 10.3867 17.5926 10.3867 15.1875C10.3867 12.7824 12.3302 10.8389 14.7354 10.8389C17.1405 10.8389 19.084 12.7824 19.084 15.1875Z" stroke="#347AE2" stroke-width="1.82206" stroke-linecap="round" stroke-linejoin="round"/>
<path d="M14.7355 25.2333C19.0234 25.2333 23.0198 22.7067 25.8015 18.3337C26.8947 16.621 26.8947 13.7421 25.8015 12.0294C23.0198 7.65647 19.0234 5.12988 14.7355 5.12988C10.4476 5.12988 6.45121 7.65647 3.66954 12.0294C2.5763 13.7421 2.5763 16.621 3.66954 18.3337C6.45121 22.7067 10.4476 25.2333 14.7355 25.2333Z" stroke="#347AE2" stroke-width="1.82206" stroke-linecap="round" stroke-linejoin="round"/>
</svg>
