<svg width="24" height="24" viewBox="0 0 24 24" fill="none" xmlns="http://www.w3.org/2000/svg">
<path fill-rule="evenodd" clip-rule="evenodd" d="M6.85039 8.9999C6.85039 7.68101 7.29098 6.38991 8.13569 5.43961C8.9665 4.50496 10.2311 3.8499 12.0004 3.8499C13.7697 3.8499 15.0343 4.50496 15.8651 5.43961C16.7098 6.38991 17.1504 7.68101 17.1504 8.9999C17.1504 10.2595 17.777 11.1981 18.2546 11.9136L18.2931 11.9714C18.8114 12.7488 19.1504 13.2937 19.1504 13.9999C19.1504 14.9742 18.4567 15.7577 17.0168 16.3362C15.5994 16.9057 13.7189 17.1499 12.0004 17.1499C10.2819 17.1499 8.40138 16.9057 6.98396 16.3362C5.54412 15.7577 4.85039 14.9742 4.85039 13.9999C4.85039 13.3064 5.17461 12.8296 5.6985 12.0753C6.20212 11.3503 6.85039 10.4078 6.85039 8.9999ZM12.0004 2.1499C9.76974 2.1499 8.03429 2.99485 6.8651 4.31019C5.70981 5.60989 5.15039 7.31879 5.15039 8.9999C5.15039 9.83343 4.79866 10.3909 4.30228 11.1055L4.23255 11.2056C3.76295 11.8784 3.15039 12.756 3.15039 13.9999C3.15039 16.0257 4.67889 17.2421 6.35016 17.9136C8.04385 18.5941 10.1633 18.8499 12.0004 18.8499C13.8375 18.8499 15.9569 18.5941 17.6506 17.9136C19.3219 17.2421 20.8504 16.0257 20.8504 13.9999C20.8504 12.7403 20.2238 11.8017 19.7462 11.0862L19.7076 11.0284C19.1894 10.251 18.8504 9.70612 18.8504 8.9999C18.8504 7.31879 18.291 5.60989 17.1357 4.31019C15.9665 2.99485 14.231 2.1499 12.0004 2.1499ZM9.5289 19.2927C9.91642 19.0343 10.4389 19.1362 10.7014 19.5192L10.7078 19.5277C10.7168 19.5396 10.7345 19.562 10.7607 19.5914C10.8136 19.651 10.8973 19.7351 11.0104 19.8199C11.2339 19.9876 11.5594 20.1499 12.0004 20.1499C12.4414 20.1499 12.7669 19.9876 12.9904 19.8199C13.1034 19.7351 13.1872 19.651 13.2401 19.5914C13.2663 19.562 13.2839 19.5396 13.293 19.5277L13.2994 19.5192C13.5619 19.1362 14.0844 19.0343 14.4719 19.2927C14.8625 19.5531 14.968 20.0808 14.7076 20.4714L14.0004 19.9999C14.7076 20.4714 14.7074 20.4717 14.7072 20.472L14.7067 20.4727L14.7058 20.4741L14.7037 20.4773L14.6987 20.4846L14.6853 20.5037C14.6749 20.5183 14.6616 20.5366 14.6453 20.558C14.6127 20.6008 14.5679 20.6565 14.5107 20.7209C14.3969 20.8488 14.2307 21.0147 14.0104 21.1799C13.5673 21.5122 12.8927 21.8499 12.0004 21.8499C11.108 21.8499 10.4335 21.5122 9.99039 21.1799C9.7701 21.0147 9.60385 20.8488 9.49009 20.7209C9.43292 20.6565 9.38811 20.6008 9.35552 20.558C9.3392 20.5366 9.32586 20.5183 9.31549 20.5037L9.30213 20.4846L9.29709 20.4773L9.29498 20.4741L9.29403 20.4727L9.29358 20.472C9.29336 20.4717 9.29315 20.4714 10.0004 19.9999L9.29315 20.4714C9.03275 20.0808 9.1383 19.5531 9.5289 19.2927Z" fill="#2D2D2D"/>
<path d="M24 2C24 3.10457 23.1046 4 22 4C20.8954 4 20 3.10457 20 2C20 0.895431 20.8954 0 22 0C23.1046 0 24 0.895431 24 2Z" fill="#FF3B30"/>
</svg>
