<svg width="30" height="30" viewBox="0 0 30 30" fill="none" xmlns="http://www.w3.org/2000/svg">
<rect width="29.1529" height="29.1529" transform="translate(0.435547 0.611328)" fill="white"/>
<path d="M7.72363 12.7587V10.3293C7.72363 6.30857 8.93834 3.04102 15.0119 3.04102C21.0854 3.04102 22.3001 6.30857 22.3001 10.3293V12.7587M15.0119 23.0837C15.8173 23.0837 16.5897 22.7637 17.1592 22.1942C17.7287 21.6247 18.0486 20.8523 18.0486 20.0469C18.0486 19.2415 17.7287 18.4691 17.1592 17.8996C16.5897 17.3301 15.8173 17.0101 15.0119 17.0101C14.2065 17.0101 13.4341 17.3301 12.8646 17.8996C12.295 18.4691 11.9751 19.2415 11.9751 20.0469C11.9751 20.8523 12.295 21.6247 12.8646 22.1942C13.4341 22.7637 14.2065 23.0837 15.0119 23.0837Z" stroke="#347AE2" stroke-width="1.82206" stroke-linecap="round" stroke-linejoin="round"/>
<path d="M21.0858 27.3343H8.93876C4.07994 27.3343 2.86523 26.1196 2.86523 21.2608V18.8313C2.86523 13.9725 4.07994 12.7578 8.93876 12.7578H21.0858C25.9446 12.7578 27.1594 13.9725 27.1594 18.8313V21.2608C27.1594 26.1196 25.9446 27.3343 21.0858 27.3343Z" stroke="#347AE2" stroke-width="1.82206" stroke-linecap="round" stroke-linejoin="round"/>
</svg>
