<svg width="24" height="24" viewBox="0 0 24 24" fill="none" xmlns="http://www.w3.org/2000/svg">
<g clip-path="url(#clip0_734_9428)">
<path d="M17.8831 19.297C16.1241 20.4128 14.0832 21.0036 12.0001 21C6.60813 21 2.12213 17.12 1.18213 12C1.61182 9.67137 2.78268 7.54396 4.52013 5.93504L1.39413 2.80804L2.80813 1.39404L22.6071 21.192L21.1931 22.607L17.8831 19.297ZM5.93613 7.35004C4.57677 8.5855 3.62972 10.2087 3.22313 12C3.53542 13.3665 4.16239 14.6412 5.05413 15.7226C5.94587 16.8041 7.07775 17.6624 8.35968 18.2294C9.64161 18.7963 11.0382 19.0561 12.4382 18.9882C13.8383 18.9202 15.2031 18.5264 16.4241 17.838L14.3961 15.81C13.5328 16.3539 12.5103 16.5881 11.4964 16.4745C10.4824 16.3608 9.53717 15.9059 8.8157 15.1845C8.09423 14.463 7.63936 13.5178 7.52569 12.5038C7.41202 11.4898 7.64631 10.4674 8.19013 9.60404L5.93613 7.35004ZM12.9141 14.328L9.67213 11.087C9.49419 11.54 9.45232 12.035 9.55163 12.5114C9.65095 12.9878 9.88715 13.4248 10.2312 13.7689C10.5753 14.113 11.0124 14.3492 11.4888 14.4485C11.9652 14.5479 12.4612 14.506 12.9141 14.328ZM20.8061 16.593L19.3751 15.162C20.0443 14.2095 20.5209 13.1354 20.7781 12C20.5064 10.8097 19.9954 9.68697 19.2762 8.70024C18.557 7.71351 17.6447 6.88334 16.5946 6.2602C15.5446 5.63707 14.3788 5.23398 13.1681 5.07546C11.9575 4.91693 10.7272 5.00627 9.55213 5.33804L7.97413 3.76004C9.22113 3.27004 10.5801 3.00004 12.0001 3.00004C17.3921 3.00004 21.8781 6.88004 22.8191 12C22.5129 13.6661 21.8231 15.2383 20.8061 16.593ZM11.7231 7.50904C12.3596 7.46971 12.9972 7.56611 13.5937 7.79186C14.1901 8.01761 14.7317 8.36755 15.1827 8.81849C15.6336 9.26943 15.9836 9.81107 16.2093 10.4075C16.4351 11.0039 16.5315 11.6415 16.4921 12.278L11.7231 7.50904Z" fill="#347AE2"/>
</g>
<defs>
<clipPath id="clip0_734_9428">
<rect width="24" height="24" fill="white"/>
</clipPath>
</defs>
</svg>
